<svg width="56" height="56" viewBox="0 0 56 56" fill="none" xmlns="http://www.w3.org/2000/svg">
<mask id="mask0_156_2" style="mask-type:luminance" maskUnits="userSpaceOnUse" x="15" y="20" width="26" height="16">
<path d="M40.7778 20H15V36H40.7778V20Z" fill="white"/>
</mask>
<g mask="url(#mask0_156_2)">
<path d="M24.9596 27.1644C26.3729 26.4889 27.1107 25.4667 27.1107 23.8755C27.1107 20.7378 24.7729 19.9733 22.0751 19.9733H14.6484V35.7244H22.284C25.1462 35.7244 27.8351 34.3511 27.8351 31.1511C27.8351 29.1733 26.8973 27.7111 24.9596 27.1644ZM18.1107 22.6622H21.3596C22.6084 22.6622 23.7329 23.0133 23.7329 24.4622C23.7329 25.8 22.8573 26.3378 21.6218 26.3378H18.1107V22.6622ZM21.8129 33.0489H18.1107V28.7111H21.884C23.4084 28.7111 24.3729 29.3467 24.3729 30.96C24.3729 32.5511 23.2218 33.0489 21.8129 33.0489ZM37.7462 22.3511H31.3596V20.8H37.7462V22.3511ZM40.2484 30.1867C40.2484 26.8133 38.2751 24 34.6973 24C31.2218 24 28.8618 26.6133 28.8618 30.0355C28.8618 33.5867 31.0973 36.0222 34.6973 36.0222C37.4218 36.0222 39.1862 34.7956 40.0351 32.1867H37.2707C36.9729 33.16 35.7462 33.6756 34.7951 33.6756C32.9596 33.6756 31.9951 32.6 31.9951 30.7733H40.2218C40.2351 30.5867 40.2484 30.3867 40.2484 30.1867ZM31.9996 28.8C32.1018 27.3022 33.0973 26.3644 34.5996 26.3644C36.1729 26.3644 36.964 27.2889 37.0973 28.8H31.9996Z" fill="white"/>
</g>
</svg>
