<svg width="114" height="114" viewBox="0 0 114 114" fill="none" xmlns="http://www.w3.org/2000/svg">
<path fill-rule="evenodd" clip-rule="evenodd" d="M56.9502 3.05176e-05H57.0498C58.1544 0.000976205 59.049 0.897173 59.0481 2.00174C59.0471 3.10631 58.151 4.00097 57.0464 4.00003H56.9536C55.849 4.00097 54.9528 3.10631 54.9519 2.00174C54.9509 0.897173 55.8456 0.000976086 56.9502 3.05176e-05ZM31.269 8.33652C31.8213 9.29308 31.4937 10.5163 30.5371 11.0686L30.4573 11.1148C29.5017 11.6688 28.278 11.3433 27.724 10.3877C27.1699 9.43207 27.4955 8.2083 28.4511 7.6543L28.5369 7.60464C29.4935 7.0523 30.7167 7.37997 31.269 8.33652ZM82.731 8.33653C83.2833 7.37998 84.5065 7.0523 85.4631 7.60464L85.5489 7.6543C86.5045 8.20831 86.83 9.43208 86.276 10.3877C85.722 11.3433 84.4982 11.6688 83.5426 11.1148L83.4629 11.0686C82.5063 10.5163 82.1786 9.29308 82.731 8.33653ZM10.3876 27.724C11.3432 28.278 11.6688 29.5017 11.1148 30.4573L11.0686 30.5371C10.5163 31.4937 9.29305 31.8214 8.3365 31.269C7.37995 30.7167 7.05227 29.4935 7.60461 28.5369L7.65427 28.4511C8.20828 27.4955 9.43205 27.17 10.3876 27.724ZM103.612 27.724C104.568 27.17 105.792 27.4955 106.346 28.4511L106.395 28.5369C106.948 29.4935 106.62 30.7167 105.663 31.269C104.707 31.8214 103.484 31.4937 102.931 30.5371L102.885 30.4573C102.331 29.5018 102.657 28.278 103.612 27.724ZM2.00171 54.9519C3.10628 54.9528 4.00094 55.849 4 56.9536V57.0464C4.00094 58.151 3.10628 59.0472 2.00171 59.0481C0.897142 59.0491 0.000945568 58.1544 0 57.0498V56.9502C0.000945687 55.8456 0.897143 54.9509 2.00171 54.9519ZM111.998 54.9519C113.103 54.951 113.999 55.8456 114 56.9502V57.0498C113.999 58.1544 113.103 59.0491 111.998 59.0481C110.894 59.0472 109.999 58.151 110 57.0464V56.9536C109.999 55.849 110.894 54.9528 111.998 54.9519ZM8.33649 82.731C9.29305 82.1786 10.5162 82.5063 11.0686 83.4629L11.1148 83.5427C11.6688 84.4983 11.3432 85.722 10.3876 86.276C9.43204 86.83 8.20827 86.5045 7.65426 85.5489L7.60461 85.4631C7.05227 84.5065 7.37994 83.2833 8.33649 82.731ZM105.663 82.731C106.62 83.2833 106.948 84.5065 106.395 85.4631L106.346 85.5489C105.792 86.5045 104.568 86.8301 103.612 86.276C102.657 85.722 102.331 84.4983 102.885 83.5427L102.931 83.4629C103.484 82.5063 104.707 82.1787 105.663 82.731ZM27.7239 103.612C28.2779 102.657 29.5017 102.331 30.4573 102.885L30.5371 102.931C31.4937 103.484 31.8213 104.707 31.269 105.663C30.7166 106.62 29.4934 106.948 28.5369 106.395L28.4511 106.346C27.4955 105.792 27.1699 104.568 27.7239 103.612ZM86.276 103.612C86.83 104.568 86.5045 105.792 85.5489 106.346L85.4631 106.395C84.5065 106.948 83.2833 106.62 82.731 105.663C82.1786 104.707 82.5063 103.484 83.4628 102.931L83.5426 102.885C84.4982 102.331 85.722 102.657 86.276 103.612ZM54.9519 111.998C54.9528 110.894 55.849 109.999 56.9536 110H57.0464C58.1509 109.999 59.0471 110.894 59.0481 111.998C59.049 113.103 58.1544 113.999 57.0498 114H56.9501C55.8456 113.999 54.9509 113.103 54.9519 111.998Z" fill="white" fill-opacity="0.2"/>
</svg>
