<svg width="56" height="56" viewBox="0 0 56 56" fill="none" xmlns="http://www.w3.org/2000/svg">
<path fill-rule="evenodd" clip-rule="evenodd" d="M18.9216 22.6208C18.3984 23.6476 18.3984 24.9917 18.3984 27.68V28.32C18.3984 31.0083 18.3984 32.3524 18.9216 33.3792C19.3817 34.2823 20.1161 35.0166 21.0192 35.4768C22.046 36 23.3901 36 26.0784 36H29.9184C32.6066 36 33.9508 36 34.9775 35.4768C35.8807 35.0166 36.615 34.2823 37.0752 33.3792C37.5984 32.3524 37.5984 31.0083 37.5984 28.32V27.68C37.5984 24.9917 37.5984 23.6476 37.0752 22.6208C37.0481 22.5676 37.02 22.515 36.991 22.4629L32.0885 26.3697L32.0609 26.3917C31.4614 26.8695 30.9711 27.2602 30.5442 27.5521C30.1008 27.8554 29.6732 28.0898 29.1863 28.2241C28.4101 28.4382 27.5906 28.4382 26.8145 28.2241C26.3275 28.0898 25.8999 27.8554 25.4565 27.5522C25.0295 27.2603 24.5392 26.8696 23.9397 26.3918L23.9121 26.3698L23.8698 26.3361L19.0068 22.461C18.9774 22.5137 18.949 22.567 18.9216 22.6208ZM20.2599 21.0046L25.1086 24.8683C25.7425 25.3733 26.1781 25.7197 26.5402 25.9673C26.8923 26.2081 27.1215 26.3171 27.325 26.3732C27.767 26.4952 28.2337 26.4951 28.6757 26.3732C28.8792 26.3171 29.1083 26.2081 29.4604 25.9673C29.8225 25.7196 30.2582 25.3732 30.892 24.8682L35.7386 21.0059C35.5018 20.8224 35.2472 20.6606 34.9775 20.5232C33.9508 20 32.6066 20 29.9184 20H26.0784C23.3901 20 22.046 20 21.0192 20.5232C20.7502 20.6602 20.4962 20.8216 20.2599 21.0046Z" fill="white"/>
</svg>
