<svg width="48" height="48" viewBox="0 0 48 48" fill="none" xmlns="http://www.w3.org/2000/svg">
<mask id="mask0_156_25" style="mask-type:luminance" maskUnits="userSpaceOnUse" x="15" y="12" width="18" height="24">
<path d="M32.0156 12H15.9844V36H32.0156V12Z" fill="white"/>
</mask>
<g mask="url(#mask0_156_25)">
<path d="M19.9914 36C22.2033 36 23.9984 34.208 23.9984 32V28H19.9914C17.7796 28 15.9844 29.792 15.9844 32C15.9844 34.208 17.7796 36 19.9914 36Z" fill="white"/>
<path d="M15.9844 24C15.9844 21.792 17.7796 20 19.9914 20H23.9984V28H19.9914C17.7796 28 15.9844 26.208 15.9844 24Z" fill="white"/>
<path d="M15.9844 16C15.9844 13.792 17.7796 12 19.9914 12H23.9984V20H19.9914C17.7796 20 15.9844 18.208 15.9844 16Z" fill="white"/>
<path d="M24 12H28.007C30.2189 12 32.014 13.792 32.014 16C32.014 18.208 30.2189 20 28.007 20H24V12Z" fill="white"/>
<path d="M32.014 24C32.014 26.208 30.2189 28 28.007 28C25.7951 28 24 26.208 24 24C24 21.792 25.7951 20 28.007 20C30.2189 20 32.014 21.792 32.014 24Z" fill="white"/>
</g>
</svg>
