<svg width="48" height="48" viewBox="0 0 48 48" fill="none" xmlns="http://www.w3.org/2000/svg">
<path fill-rule="evenodd" clip-rule="evenodd" d="M24.041 12C17.2227 12 11.7188 17.5039 11.7188 24.3222C11.7188 29.744 15.251 34.3443 20.18 35.9872C20.8372 36.0694 21.0016 35.7408 21.0016 35.4122V33.2763C17.5513 34.0157 16.812 31.6334 16.812 31.6334C16.2369 30.2369 15.4153 29.8261 15.4153 29.8261C14.2653 29.0868 15.4976 29.0868 15.4976 29.0868C16.7298 29.1689 17.3869 30.319 17.3869 30.319C18.4548 32.2084 20.2622 31.6334 21.0016 31.3048C21.0837 30.4833 21.4123 29.9904 21.823 29.6618C19.1121 29.3332 16.2369 28.2653 16.2369 23.5829C16.2369 22.2685 16.7298 21.1184 17.4692 20.297C17.3049 19.9684 16.8941 18.7361 17.5513 17.011C17.5513 17.011 18.6191 16.6824 20.9193 18.2433C21.9051 17.9968 22.973 17.8325 24.041 17.8325C25.1089 17.8325 26.1769 17.9968 27.1627 18.2433C29.545 16.6824 30.5308 17.011 30.5308 17.011C31.188 18.7361 30.7772 19.9684 30.6129 20.297C31.4344 21.1184 31.8451 22.2685 31.8451 23.5829C31.8451 28.3475 28.97 29.3332 26.2591 29.6618C26.6698 30.0726 27.0806 30.8119 27.0806 31.962V35.33C27.0806 35.6586 27.327 36.0694 27.902 35.9051C32.831 34.2621 36.2812 29.6618 36.2812 24.2401C36.3634 17.5039 30.8593 12 24.041 12Z" fill="white"/>
</svg>
