<svg width="56" height="56" viewBox="0 0 56 56" fill="none" xmlns="http://www.w3.org/2000/svg">
<path fill-rule="evenodd" clip-rule="evenodd" d="M37.4763 36H33.5724V29.3508C33.5724 27.5277 32.8797 26.509 31.4368 26.509C29.8671 26.509 29.047 27.5692 29.047 29.3508V36H25.2848V23.3333H29.047V25.0395C29.047 25.0395 30.1782 22.9463 32.8661 22.9463C35.5528 22.9463 37.4763 24.587 37.4763 27.9803V36ZM20.7965 21.6747C19.515 21.6747 18.4766 20.6281 18.4766 19.3374C18.4766 18.0466 19.515 17 20.7965 17C22.078 17 23.1158 18.0466 23.1158 19.3374C23.1158 20.6281 22.078 21.6747 20.7965 21.6747ZM18.8538 36H22.7769V23.3333H18.8538V36Z" fill="white"/>
</svg>
