<svg width="24" height="24" viewBox="0 0 24 24" fill="none" xmlns="http://www.w3.org/2000/svg">
<g clip-path="url(#clip0_32_26)">
<path d="M12.0001 1.99231C10.1898 1.99264 8.41358 2.48438 6.86085 3.41507C5.30811 4.34576 4.03715 5.6805 3.18352 7.27689C2.32989 8.87329 1.92562 10.6715 2.01384 12.4796C2.10205 14.2877 2.67944 16.038 3.68441 17.5437C4.68939 19.0495 6.08424 20.2541 7.7202 21.0293C9.35615 21.8044 11.1718 22.1209 12.9736 21.945C14.7753 21.7691 16.4955 21.1074 17.9506 20.0305C19.4058 18.9537 20.5413 17.502 21.2361 15.8303C21.5771 15.0103 20.7601 14.1863 19.9381 14.5203C18.5293 15.091 16.965 15.1499 15.5173 14.6867C14.0695 14.2236 12.8299 13.2677 12.0139 11.9853C11.1978 10.7029 10.8571 9.17509 11.0508 7.66746C11.2445 6.15984 11.9604 4.76778 13.0741 3.73331L13.1511 3.65331C13.7021 3.02331 13.2641 2.00031 12.3931 2.00031H12.1271L12.0591 1.99431L11.9991 1.99231H12.0001Z" fill="white"/>
</g>
<defs>
<clipPath id="clip0_32_26">
<rect width="24" height="24" fill="white" transform="translate(0 0.000305176)"/>
</clipPath>
</defs>
</svg>
