<svg width="56" height="56" viewBox="0 0 56 56" fill="none" xmlns="http://www.w3.org/2000/svg">
<mask id="mask0_156_13" style="mask-type:luminance" maskUnits="userSpaceOnUse" x="18" y="18" width="21" height="20">
<path d="M38.0039 18H18.0039V38H38.0039V18Z" fill="white"/>
</mask>
<g mask="url(#mask0_156_13)">
<path d="M28.0006 18.033C22.4948 18.033 18.0312 22.4964 18.0312 28.0022C18.0312 33.5083 22.4948 37.9714 28.0006 37.9714C33.507 37.9714 37.9701 33.5083 37.9701 28.0022C37.9701 22.4968 33.5071 18.033 28.0006 18.033ZM32.5725 32.4115C32.3939 32.7044 32.0106 32.7972 31.7177 32.6175C29.377 31.1877 26.4304 30.8639 22.9601 31.6568C22.6257 31.733 22.2924 31.5234 22.2162 31.1889C22.1396 30.8544 22.3483 30.5211 22.6836 30.4449C26.4812 29.5769 29.7387 29.9508 32.3666 31.5568C32.6594 31.7365 32.7523 32.1187 32.5725 32.4115ZM33.7927 29.6966C33.5677 30.0627 33.0893 30.1782 32.7238 29.9532C30.044 28.3057 25.9591 27.8287 22.7894 28.7908C22.3783 28.915 21.9442 28.6833 21.8194 28.273C21.6956 27.8619 21.9274 27.4286 22.3377 27.3036C25.9583 26.205 30.4595 26.7371 33.5368 28.6282C33.9023 28.8532 34.0177 29.3316 33.7927 29.6966ZM33.8975 26.87C30.6844 24.9615 25.3832 24.7861 22.3155 25.7171C21.8229 25.8665 21.3019 25.5884 21.1526 25.0958C21.0033 24.603 21.2813 24.0824 21.7743 23.9326C25.2958 22.8636 31.15 23.0701 34.8493 25.2662C35.2933 25.5291 35.4385 26.1014 35.1754 26.5439C34.9135 26.987 34.3391 27.1331 33.8975 26.87Z" fill="white"/>
</g>
</svg>
